# xmcd
#
# Track frame offsets:
#	150
#	22656
#	40692
#	62215
#	72827
#	87626
#	99467
#	113163
#	125738
#	138727
#	155467
#	170113
#	184036
#	199586
#	211430
#
# Disc length: 2992 seconds
# Revision: 0
# Processed by: cddbd v1.5.2PL0 Copyright (c) Steve Scherf et al.
# Submitted via: dBpowerAMP V12.0
#
DISCID=d80bae0f
DTITLE=Randy and Penny Allen - Living Letters
DYEAR=2004
DGENRE=Gospel
TTITLE0=Meeting in the Air
TTITLE1=In the Garden
TTITLE2=What a Friend
TTITLE3=House of Gold
TTITLE4=Keep on the Sunny Side
TTITLE5=Where No One Stands Alone
TTITLE6=It Is No Secret
TTITLE7=No Hiding Place
TTITLE8=Where Could I Go
TTITLE9=I'll Meet You in the Morning
TTITLE10=50 Miles of Elbow Room
TTITLE11=You'll Be Rewarded Over There
TTITLE12=Old Country Church
TTITLE13=Working on a Building
TTITLE14=Gloryland Way
EXTD=
EXTT0=
EXTT1=
EXTT2=
EXTT3=
EXTT4=
EXTT5=
EXTT6=
EXTT7=
EXTT8=
EXTT9=
EXTT10=
EXTT11=
EXTT12=
EXTT13=
EXTT14=
PLAYORDER=
